<?xml version="1.0" encoding="UTF-8"?>
<svg width="1200" height="800" viewBox="0 0 1200 800" fill="none" xmlns="http://www.w3.org/2000/svg">
  <defs>
    <linearGradient id="g1" x1="0" x2="1">
      <stop offset="0" stop-color="#10b981"/>
      <stop offset="1" stop-color="#3b82f6"/>
    </linearGradient>
  </defs>
  <rect width="1200" height="800" rx="24" fill="url(#g1)" opacity="0.12"/>

  <g transform="translate(80,60)">
    <rect x="0" y="0" width="520" height="360" rx="12" fill="#fff" opacity="0.95"/>
    <g transform="translate(24,24)">
      <rect x="0" y="0" width="180" height="120" rx="8" fill="#10b981" opacity="0.15"/>
      <rect x="200" y="0" width="280" height="120" rx="8" fill="#3b82f6" opacity="0.12"/>

      <rect x="0" y="140" width="480" height="20" rx="6" fill="#e6f9ee"/>
      <rect x="0" y="170" width="420" height="14" rx="6" fill="#f3f4f6"/>

      <circle cx="60" cy="240" r="40" fill="#10b981" opacity="0.12" />
      <rect x="120" y="210" width="320" height="60" rx="8" fill="#fff"/>

      <g transform="translate(90,220)" fill="#10b981" opacity="0.95">
        <path d="M12 0c6.6 0 12 5.4 12 12s-5.4 12-12 12S0 18.6 0 12 5.4 0 12 0z"/>
      </g>
    </g>
  </g>

  <g transform="translate(660,120)">
    <rect x="0" y="0" width="420" height="540" rx="18" fill="#fff" opacity="0.96"/>
    <g transform="translate(28,28)">
      <rect x="0" y="0" width="364" height="140" rx="12" fill="#f8fafc"/>
      <rect x="0" y="164" width="200" height="16" rx="8" fill="#e6f3ff"/>
      <rect x="0" y="196" width="340" height="12" rx="6" fill="#f3f4f6"/>

      <rect x="0" y="224" width="340" height="12" rx="6" fill="#f3f4f6"/>

      <rect x="0" y="262" width="120" height="72" rx="10" fill="#10b981" opacity="0.08"/>
      <rect x="140" y="262" width="200" height="72" rx="10" fill="#3b82f6" opacity="0.06"/>
    </g>
  </g>

  <g transform="translate(140,460)">
    <rect x="0" y="0" width="920" height="200" rx="12" fill="#fff" opacity="0.5"/>
  </g>
</svg>
